<svg id="visual" viewBox="0 0 960 540" width="960" height="540" xmlns="http://www.w3.org/2000/svg" xmlns:xlink="http://www.w3.org/1999/xlink" version="1.1"><rect x="0" y="0" width="960" height="540" fill="#001220"></rect><defs><linearGradient id="grad1_0" x1="43.8%" y1="0%" x2="100%" y2="100%"><stop offset="14.444444444444446%" stop-color="#6600ff" stop-opacity="1"></stop><stop offset="85.55555555555554%" stop-color="#6600ff" stop-opacity="1"></stop></linearGradient></defs><defs><linearGradient id="grad1_1" x1="43.8%" y1="0%" x2="100%" y2="100%"><stop offset="14.444444444444446%" stop-color="#6600ff" stop-opacity="1"></stop><stop offset="85.55555555555554%" stop-color="#0034d3" stop-opacity="1"></stop></linearGradient></defs><defs><linearGradient id="grad1_2" x1="43.8%" y1="0%" x2="100%" y2="100%"><stop offset="14.444444444444446%" stop-color="#003299" stop-opacity="1"></stop><stop offset="85.55555555555554%" stop-color="#0034d3" stop-opacity="1"></stop></linearGradient></defs><defs><linearGradient id="grad1_3" x1="43.8%" y1="0%" x2="100%" y2="100%"><stop offset="14.444444444444446%" stop-color="#003299" stop-opacity="1"></stop><stop offset="85.55555555555554%" stop-color="#00255b" stop-opacity="1"></stop></linearGradient></defs><defs><linearGradient id="grad1_4" x1="43.8%" y1="0%" x2="100%" y2="100%"><stop offset="14.444444444444446%" stop-color="#001220" stop-opacity="1"></stop><stop offset="85.55555555555554%" stop-color="#00255b" stop-opacity="1"></stop></linearGradient></defs><defs><linearGradient id="grad2_0" x1="0%" y1="0%" x2="56.3%" y2="100%"><stop offset="14.444444444444446%" stop-color="#6600ff" stop-opacity="1"></stop><stop offset="85.55555555555554%" stop-color="#6600ff" stop-opacity="1"></stop></linearGradient></defs><defs><linearGradient id="grad2_1" x1="0%" y1="0%" x2="56.3%" y2="100%"><stop offset="14.444444444444446%" stop-color="#0034d3" stop-opacity="1"></stop><stop offset="85.55555555555554%" stop-color="#6600ff" stop-opacity="1"></stop></linearGradient></defs><defs><linearGradient id="grad2_2" x1="0%" y1="0%" x2="56.3%" y2="100%"><stop offset="14.444444444444446%" stop-color="#0034d3" stop-opacity="1"></stop><stop offset="85.55555555555554%" stop-color="#003299" stop-opacity="1"></stop></linearGradient></defs><defs><linearGradient id="grad2_3" x1="0%" y1="0%" x2="56.3%" y2="100%"><stop offset="14.444444444444446%" stop-color="#00255b" stop-opacity="1"></stop><stop offset="85.55555555555554%" stop-color="#003299" stop-opacity="1"></stop></linearGradient></defs><defs><linearGradient id="grad2_4" x1="0%" y1="0%" x2="56.3%" y2="100%"><stop offset="14.444444444444446%" stop-color="#00255b" stop-opacity="1"></stop><stop offset="85.55555555555554%" stop-color="#001220" stop-opacity="1"></stop></linearGradient></defs><g transform="translate(960, 0)"><path d="M0 486C-62.7 469.3 -125.4 452.6 -174.9 422.2C-224.4 391.8 -260.7 347.8 -309 309C-357.3 270.2 -417.5 236.6 -449 186C-480.5 135.4 -483.2 67.7 -486 0L0 0Z" fill="#001c3d"></path><path d="M0 388.8C-50.2 375.4 -100.3 362.1 -139.9 337.8C-179.5 313.5 -208.6 278.3 -247.2 247.2C-285.8 216.2 -334 189.3 -359.2 148.8C-384.4 108.3 -386.6 54.1 -388.8 0L0 0Z" fill="#002c7a"></path><path d="M0 291.6C-37.6 281.6 -75.2 271.5 -104.9 253.3C-134.6 235.1 -156.4 208.7 -185.4 185.4C-214.4 162.1 -250.5 142 -269.4 111.6C-288.3 81.2 -289.9 40.6 -291.6 0L0 0Z" fill="#0035b7"></path><path d="M0 194.4C-25.1 187.7 -50.2 181 -70 168.9C-89.8 156.7 -104.3 139.1 -123.6 123.6C-142.9 108.1 -167 94.6 -179.6 74.4C-192.2 54.1 -193.3 27.1 -194.4 0L0 0Z" fill="#1b2aeb"></path><path d="M0 97.2C-12.5 93.9 -25.1 90.5 -35 84.4C-44.9 78.4 -52.1 69.6 -61.8 61.8C-71.5 54 -83.5 47.3 -89.8 37.2C-96.1 27.1 -96.6 13.5 -97.2 0L0 0Z" fill="#6600ff"></path></g><g transform="translate(0, 540)"><path d="M0 -486C51.4 -452.7 102.8 -419.4 166.5 -401.9C230.1 -384.4 306 -382.6 343.7 -343.7C381.3 -304.7 380.8 -228.4 398.2 -164.9C415.6 -101.5 450.8 -50.7 486 0L0 0Z" fill="#001c3d"></path><path d="M0 -388.8C41.1 -362.2 82.3 -335.5 133.2 -321.5C184.1 -307.5 244.8 -306.1 274.9 -274.9C305.1 -243.7 304.7 -182.7 318.6 -131.9C332.4 -81.2 360.6 -40.6 388.8 0L0 0Z" fill="#002c7a"></path><path d="M0 -291.6C30.8 -271.6 61.7 -251.6 99.9 -241.1C138.1 -230.6 183.6 -229.6 206.2 -206.2C228.8 -182.8 228.5 -137.1 238.9 -99C249.3 -60.9 270.5 -30.4 291.6 0L0 0Z" fill="#0035b7"></path><path d="M0 -194.4C20.6 -181.1 41.1 -167.8 66.6 -160.8C92 -153.7 122.4 -153.1 137.5 -137.5C152.5 -121.9 152.3 -91.4 159.3 -66C166.2 -40.6 180.3 -20.3 194.4 0L0 0Z" fill="#1b2aeb"></path><path d="M0 -97.2C10.3 -90.5 20.6 -83.9 33.3 -80.4C46 -76.9 61.2 -76.5 68.7 -68.7C76.3 -60.9 76.2 -45.7 79.6 -33C83.1 -20.3 90.2 -10.1 97.2 0L0 0Z" fill="#6600ff"></path></g></svg>