<svg id="visual" viewBox="0 0 960 540" width="960" height="540" xmlns="http://www.w3.org/2000/svg" xmlns:xlink="http://www.w3.org/1999/xlink" version="1.1"><g stroke-width="1" stroke-linejoin="bevel"><path d="M521 244L582 181L494 78Z" fill="#4d1fec" stroke="#4d1fec"></path><path d="M582 0L471 0L494 78Z" fill="#002152" stroke="#002152"></path><path d="M494 78L314 269L521 244Z" fill="#202ec4" stroke="#202ec4"></path><path d="M582 181L582 0L494 78Z" fill="#6600ff" stroke="#6600ff"></path><path d="M285 74L314 269L494 78Z" fill="#002f99" stroke="#002f99"></path><path d="M471 0L285 74L494 78Z" fill="#002f99" stroke="#002f99"></path><path d="M680 330L739 204L582 181Z" fill="#202ec4" stroke="#202ec4"></path><path d="M582 181L788 145L582 0Z" fill="#3629d9" stroke="#3629d9"></path><path d="M521 244L680 330L582 181Z" fill="#202ec4" stroke="#202ec4"></path><path d="M626 450L680 330L521 244Z" fill="#002152" stroke="#002152"></path><path d="M471 0L301 0L285 74Z" fill="#002c82" stroke="#002c82"></path><path d="M739 204L788 145L582 181Z" fill="#001a39" stroke="#001a39"></path><path d="M830 344L788 145L739 204Z" fill="#202ec4" stroke="#202ec4"></path><path d="M314 269L413 450L521 244Z" fill="#202ec4" stroke="#202ec4"></path><path d="M285 74L203 234L314 269Z" fill="#001122" stroke="#001122"></path><path d="M314 269L363 444L413 450Z" fill="#202ec4" stroke="#202ec4"></path><path d="M114 105L203 234L285 74Z" fill="#002f99" stroke="#002f99"></path><path d="M788 145L765 0L582 0Z" fill="#002152" stroke="#002152"></path><path d="M206 431L363 444L314 269Z" fill="#4d1fec" stroke="#4d1fec"></path><path d="M413 450L626 450L521 244Z" fill="#002152" stroke="#002152"></path><path d="M680 330L830 344L739 204Z" fill="#0b2faf" stroke="#0b2faf"></path><path d="M626 450L830 344L680 330Z" fill="#002152" stroke="#002152"></path><path d="M788 145L960 0L765 0Z" fill="#202ec4" stroke="#202ec4"></path><path d="M413 450L581 540L626 450Z" fill="#002c82" stroke="#002c82"></path><path d="M363 444L424 540L413 450Z" fill="#001122" stroke="#001122"></path><path d="M325 540L424 540L363 444Z" fill="#3629d9" stroke="#3629d9"></path><path d="M424 540L581 540L413 450Z" fill="#002f99" stroke="#002f99"></path><path d="M626 450L850 540L830 344Z" fill="#0b2faf" stroke="#0b2faf"></path><path d="M131 0L114 105L285 74Z" fill="#3629d9" stroke="#3629d9"></path><path d="M0 379L206 431L203 234Z" fill="#202ec4" stroke="#202ec4"></path><path d="M203 234L206 431L314 269Z" fill="#0b2faf" stroke="#0b2faf"></path><path d="M301 0L131 0L285 74Z" fill="#002152" stroke="#002152"></path><path d="M206 431L325 540L363 444Z" fill="#4d1fec" stroke="#4d1fec"></path><path d="M960 309L960 152L788 145Z" fill="#002f99" stroke="#002f99"></path><path d="M960 358L960 309L830 344Z" fill="#002c82" stroke="#002c82"></path><path d="M830 344L960 309L788 145Z" fill="#002152" stroke="#002152"></path><path d="M960 152L960 0L788 145Z" fill="#001a39" stroke="#001a39"></path><path d="M850 540L960 358L830 344Z" fill="#6600ff" stroke="#6600ff"></path><path d="M114 105L0 216L203 234Z" fill="#0b2faf" stroke="#0b2faf"></path><path d="M0 0L0 195L114 105Z" fill="#001122" stroke="#001122"></path><path d="M0 195L0 216L114 105Z" fill="#001122" stroke="#001122"></path><path d="M581 540L850 540L626 450Z" fill="#001a39" stroke="#001a39"></path><path d="M0 379L142 540L206 431Z" fill="#002152" stroke="#002152"></path><path d="M206 431L142 540L325 540Z" fill="#202ec4" stroke="#202ec4"></path><path d="M131 0L0 0L114 105Z" fill="#002f99" stroke="#002f99"></path><path d="M0 216L0 379L203 234Z" fill="#6600ff" stroke="#6600ff"></path><path d="M850 540L960 540L960 358Z" fill="#3629d9" stroke="#3629d9"></path><path d="M0 379L0 540L142 540Z" fill="#3629d9" stroke="#3629d9"></path></g></svg>